Coordinates
version=1
nRows=8
nColumns=36
inDegrees=yes

Units are S.I. units (second, meters, Newtons, ...)
If the header above contains a line with 'inDegrees', this indicates whether rotational values are in degrees (yes) or radians (no).

endheader
time	pelvis_tilt	pelvis_list	pelvis_rotation	pelvis_tx	pelvis_ty	pelvis_tz	hip_flexion_r	hip_adduction_r	hip_rotation_r	knee_angle_r	knee_angle_r_beta	ankle_angle_r	subtalar_angle_r	mtp_angle_r	hip_flexion_l	hip_adduction_l	hip_rotation_l	knee_angle_l	knee_angle_l_beta	ankle_angle_l	subtalar_angle_l	mtp_angle_l	lumbar_extension	lumbar_bending	lumbar_rotation	arm_flex_r	arm_add_r	arm_rot_r	elbow_flex_r	pro_sup_r	arm_flex_l	arm_add_l	arm_rot_l	elbow_flex_l	pro_sup_l
      0.00000000	     -1.38708711	     -3.28070382	     13.95295989	     -0.16621965	      1.15484935	      0.06655285	     15.20204124	      5.37848529	     -1.10432604	     27.40712858	      0.47834463	     12.36829550	    -16.36534378	     -6.40186023	      8.33192566	     -3.95212678	     -3.03096220	     13.18352543	      0.23009593	      5.18215616	     -7.77080220	     -6.40186023	     -2.91072158	      1.17692009	     -1.99974579	      2.79011630	     -7.30825703	     16.30934659	     29.45851976	     77.38247403	     -3.63468791	    -12.69053690	     -6.14268834	     34.17237097	     79.79453007
      0.01666670	     -3.74478888	     -3.24986837	     13.42016759	     -0.16185309	      1.15186846	      0.06414794	     17.31374028	      5.19214914	     -1.46779695	     26.50663667	      0.46262808	     14.09662773	    -13.43177502	     -6.45004408	     10.95958292	     -2.97593559	     -3.42170247	     14.33352851	      0.25016727	      5.66626528	     -6.58820954	     -6.45004408	      0.31990638	      0.88301306	     -2.19835417	      1.89877472	     -8.08200477	     17.58190319	     29.66040846	     78.15514843	     -4.74332031	    -12.31380197	     -5.92973176	     35.53818615	     80.42830549
      0.03333330	     -4.70097915	     -2.13067076	     12.97586192	     -0.16118813	      1.14906218	      0.06554906	     17.14290515	      3.95886129	     -1.55876536	     24.20418159	      0.42244266	     14.40513301	    -12.64682790	     -6.64226934	     11.85977594	     -1.77707917	     -4.34776982	     14.63292295	      0.25539268	      5.89570339	     -6.10598792	     -6.64226934	      1.88762749	     -0.60834543	     -2.20945685	      1.14451940	     -8.46280199	     19.54459139	     30.01016381	     78.22881689	     -4.99038066	    -13.04912716	     -4.25692751	     36.36130319	     80.85617500
      0.05000000	     -5.28889943	     -1.40601195	     12.06758587	     -0.16149159	      1.14533279	      0.06675626	     16.98247426	      3.19948099	     -1.45403609	     22.56053295	      0.39375558	     15.12614347	    -12.21055356	     -6.88938209	     12.16276037	     -1.03984760	     -4.83120662	     14.32892232	      0.25008687	      5.73208382	     -6.62438798	     -6.88938209	      2.60407358	     -1.47667840	     -2.03728090	      0.68807809	     -8.78876648	     19.97970473	     30.40428264	     78.99770926	     -5.16361587	    -13.06112963	     -5.90083884	     37.60584937	     84.91905819
      0.06666670	     -5.61082041	     -0.87195461	     11.43816436	     -0.16102857	      1.14688005	      0.06644012	     16.32410004	      2.76773291	     -1.28483489	     20.80774993	      0.36316375	     15.13751129	    -11.56245207	     -6.91805026	     12.25646533	     -0.44513971	     -5.18823873	     14.06623090	      0.24550204	      5.79345186	     -7.05955630	     -6.91805026	      3.09959373	     -1.90984298	     -1.83886294	      0.19507161	     -8.84806095	     20.00517786	     30.46276568	     78.55670443	     -4.80363857	    -12.92552302	     -6.13314330	     37.68493539	     84.50318445
      0.08333330	     -5.85876400	     -0.60073453	     10.73405248	     -0.15971789	      1.13945780	      0.06732237	     15.86331877	      2.69024354	     -0.64781617	     19.48695680	      0.34011156	     15.36663040	    -11.14999619	     -6.91395360	     12.40113272	     -0.21320191	     -5.15560868	     13.99644950	      0.24428413	      6.15712070	     -7.26064664	     -6.91395360	      3.55902648	     -1.96443901	     -1.86781371	     -0.04071869	     -8.90407710	     19.99364207	     30.12080857	     78.70619370	     -4.39407212	    -12.74094518	     -6.30702869	     37.57893804	     84.73012232
      0.10000000	     -6.16238527	     -0.58040972	     10.17930175	     -0.16143169	      1.13733667	      0.06827093	     15.87938743	      2.67513973	     -0.48536471	     18.76043861	      0.32743142	     15.88498557	    -10.78817050	     -6.96763979	     12.87872025	     -0.17127092	     -5.07170507	     14.16654327	      0.24725282	      6.55211908	     -7.49947896	     -6.96763979	      4.01974830	     -1.67452198	     -1.54931302	     -0.53359182	     -9.08425981	     19.24303259	     30.17353551	     77.78827236	     -3.54500101	    -11.99291507	     -7.56311755	     37.23845737	     84.10091016
      0.11666670	     -6.32559385	     -0.56555354	      9.69033047	     -0.16238346	      1.14029299	      0.06810486	     15.62875029	      2.79743947	      0.04801643	     17.94559048	      0.31320964	     15.88423018	    -10.26368578	     -7.02133977	     13.24790404	     -0.08361847	     -4.68178033	     14.53253004	      0.25364050	      6.80831958	     -7.87328377	     -7.02133977	      4.22034403	     -1.35775053	     -1.40748475	     -0.82634201	     -9.21252800	     18.68696970	     30.08549209	     77.10848382	     -2.97670206	    -11.31307642	     -8.05544218	     37.20540832	     83.45798607
